<svg version="1.1" xmlns="http://www.w3.org/2000/svg" xmlns:xlink="http://www.w3.org/1999/xlink" width="700" height="701.5" viewBox="289,290,700,701.5"><defs><clipPath id="clip-1"><rect x="289" y="290" width="700" height="700" id="clip-1" fill="none" stroke="none" stroke-width="1" stroke-linecap="butt" stroke-linejoin="miter"/></clipPath><linearGradient x1="288.41535" y1="646.96469" x2="878.92111" y2="642.84169" gradientUnits="userSpaceOnUse" id="color-1"><stop offset="0" stop-color="#ff7def"/><stop offset="1" stop-color="#ffbd7b"/></linearGradient></defs><g id="document" fill-opacity="0" fill="#fbffcd" fill-rule="nonzero" stroke="#000000" stroke-width="0" stroke-linecap="butt" stroke-linejoin="miter" stroke-miterlimit="10" stroke-dasharray="" stroke-dashoffset="0" font-family="none" font-weight="none" font-size="none" text-anchor="none" style="mix-blend-mode: normal"><rect x="289" y="208.21429" transform="scale(1,1.4)" width="700" height="500" id="Shape 1 1" vector-effect="non-scaling-stroke"/></g><g fill="none" fill-rule="nonzero" stroke="none" stroke-width="none" stroke-linecap="none" stroke-linejoin="none" stroke-miterlimit="10" stroke-dasharray="" stroke-dashoffset="0" font-family="none" font-weight="none" font-size="none" text-anchor="none" style="mix-blend-mode: normal"><g><g id="stage"><g id="layer1 1"><g clip-path="url(#clip-1)" id="Group 1"><g id="Group 1" fill="#ffffff" stroke="#000000" stroke-width="0" stroke-linecap="butt" stroke-linejoin="miter" font-family="none" font-weight="none" font-size="NaN" text-anchor="start"/><g id="Group 1" fill="url(#color-1)" stroke="#000000" stroke-width="0" stroke-linecap="round" stroke-linejoin="round"><g id="Group 1"><g id="Group 1"><g id="Group 1"><g id="Group 1"><path d="M310,810.5" id="Path 1"/><path d="M445.66462,469.68007l-136.11981,343.24518l90.53983,0.62014l99.22173,-255.49596v255.18589l76.27671,-0.31007v-342.62504z" id="Path 1"/><path d="M587.36565,469.68007" id="Path 1"/><path d="M587.36565,469.99014l77.82705,0.31007l39.06856,79.99752v-80.30759l79.68745,0.62014l184.49041,341.0747l-87.74922,0.9302l-109.76404,-204.64482l0.31007,48.68066l-86.19888,0.62014l-27.28598,-53.02161l-0.31007,208.05557l-70.07535,-0.31007z" id="Path 1"/><path d="M618.71376,558.09106" id="Path 1"/><path d="M632.91522,564.0465" id="Path 1"/><path d="M611.84209,519.60969" id="Path 1"/></g></g></g></g></g></g></g></g></g></g></svg>